HIERARCHY
ROOT Hips
{
	OFFSET -14.64140 90.27770 -84.91600
	CHANNELS 6 Xposition Yposition Zposition Zrotation Xrotation Yrotation
	JOINT Spine
	{
		OFFSET 0.00000 13.20850 -1.60436
		CHANNELS 3 Zrotation Xrotation Yrotation
		JOINT Spine1
		{
			OFFSET 0.00000 8.61716 0.00000
			CHANNELS 3 Zrotation Xrotation Yrotation
			JOINT Spine2
			{
				OFFSET 0.00000 8.61717 0.00000
				CHANNELS 3 Zrotation Xrotation Yrotation
				JOINT Spine3
				{
					OFFSET 0.00000 8.61717 0.00000
					CHANNELS 3 Zrotation Xrotation Yrotation
					JOINT Neck
					{
						OFFSET 0.00000 11.07920 1.10792
						CHANNELS 3 Zrotation Xrotation Yrotation
						JOINT Neck1
						{
							OFFSET 0.00000 7.08032 0.00000
							CHANNELS 3 Zrotation Xrotation Yrotation
							JOINT Head
							{
								OFFSET 0.00000 7.08031 0.00000
								CHANNELS 3 Zrotation Xrotation Yrotation
								End site
								{
									OFFSET 0.00000 0.00000 0.00000
								}
							}
						}
					}
					JOINT RightShoulder
					{
						OFFSET -0.01000 7.91373 5.19711
						CHANNELS 3 Zrotation Xrotation Yrotation
						JOINT RightArm
						{
							OFFSET -18.41580 0.00000 0.00000
							CHANNELS 3 Zrotation Xrotation Yrotation
							JOINT RightForeArm
							{
								OFFSET -29.11090 0.00000 0.00000
								CHANNELS 3 Zrotation Xrotation Yrotation
								JOINT RightHand
								{
									OFFSET -24.65040 0.00000 0.00000
									CHANNELS 3 Zrotation Xrotation Yrotation
									JOINT RightHandThumb1
									{
										OFFSET -5.35114 -0.85590 3.97906
										CHANNELS 3 Zrotation Xrotation Yrotation
										JOINT RightHandThumb2
										{
											OFFSET -4.52789 0.00000 0.00000
											CHANNELS 3 Zrotation Xrotation Yrotation
											JOINT RightHandThumb3
											{
												OFFSET -2.46976 0.00000 0.00000
												CHANNELS 3 Zrotation Xrotation Yrotation
												End site
												{
													OFFSET 0.00000 0.00000 0.00000
												}
											}
										}
									}
									JOINT RightHandIndex1
									{
										OFFSET -14.26970 0.00000 2.88139
										CHANNELS 3 Zrotation Xrotation Yrotation
										JOINT RightHandIndex2
										{
											OFFSET -5.48836 0.00000 0.00000
											CHANNELS 3 Zrotation Xrotation Yrotation
											JOINT RightHandIndex3
											{
												OFFSET -3.01859 0.00000 0.00000
												CHANNELS 3 Zrotation Xrotation Yrotation
												End site
												{
													OFFSET 0.00000 0.00000 0.00000
												}
											}
										}
									}
									JOINT RightHandMiddle1
									{
										OFFSET -14.26970 0.00000 -0.09147
										CHANNELS 3 Zrotation Xrotation Yrotation
										JOINT RightHandMiddle2
										{
											OFFSET -6.17441 0.00000 0.00000
											CHANNELS 3 Zrotation Xrotation Yrotation
											JOINT RightHandMiddle3
											{
												OFFSET -3.56743 0.00000 0.00000
												CHANNELS 3 Zrotation Xrotation Yrotation
												End site
												{
													OFFSET 0.00000 0.00000 0.00000
												}
											}
										}
									}
									JOINT RightHandRing1
									{
										OFFSET -12.69180 0.00000 -3.06433
										CHANNELS 3 Zrotation Xrotation Yrotation
										JOINT RightHandRing2
										{
											OFFSET -5.62556 0.00000 0.00000
											CHANNELS 3 Zrotation Xrotation Yrotation
											JOINT RightHandRing3
											{
												OFFSET -3.56744 0.00000 0.00000
												CHANNELS 3 Zrotation Xrotation Yrotation
												End site
												{
													OFFSET 0.00000 0.00000 0.00000
												}
											}
										}
									}
									JOINT RightHandPinky1
									{
										OFFSET -11.11390 0.00000 -6.03719
										CHANNELS 3 Zrotation Xrotation Yrotation
										JOINT RightHandPinky2
										{
											OFFSET -4.52789 0.00000 0.00000
											CHANNELS 3 Zrotation Xrotation Yrotation
											JOINT RightHandPinky3
											{
												OFFSET -2.46976 0.00000 0.00000
												CHANNELS 3 Zrotation Xrotation Yrotation
												End site
												{
													OFFSET 0.00000 0.00000 0.00000
												}
											}
										}
									}
								}
							}
						}
					}
					JOINT LeftShoulder
					{
						OFFSET 0.01000 7.91373 5.19711
						CHANNELS 3 Zrotation Xrotation Yrotation
						JOINT LeftArm
						{
							OFFSET 18.41580 0.00000 0.00000
							CHANNELS 3 Zrotation Xrotation Yrotation
							JOINT LeftForeArm
							{
								OFFSET 29.11090 0.00000 0.00000
								CHANNELS 3 Zrotation Xrotation Yrotation
								JOINT LeftHand
								{
									OFFSET 24.65040 0.00000 0.00000
									CHANNELS 3 Zrotation Xrotation Yrotation
									JOINT LeftHandThumb1
									{
										OFFSET 5.35114 -0.85590 3.97906
										CHANNELS 3 Zrotation Xrotation Yrotation
										JOINT LeftHandThumb2
										{
											OFFSET 4.52789 0.00000 0.00000
											CHANNELS 3 Zrotation Xrotation Yrotation
											JOINT LeftHandThumb3
											{
												OFFSET 2.46977 0.00000 0.00000
												CHANNELS 3 Zrotation Xrotation Yrotation
												End site
												{
													OFFSET 0.00000 0.00000 0.00000
												}
											}
										}
									}
									JOINT LeftHandIndex1
									{
										OFFSET 14.26970 0.00000 2.88139
										CHANNELS 3 Zrotation Xrotation Yrotation
										JOINT LeftHandIndex2
										{
											OFFSET 5.48836 0.00000 0.00000
											CHANNELS 3 Zrotation Xrotation Yrotation
											JOINT LeftHandIndex3
											{
												OFFSET 3.01859 0.00000 0.00000
												CHANNELS 3 Zrotation Xrotation Yrotation
												End site
												{
													OFFSET 0.00000 0.00000 0.00000
												}
											}
										}
									}
									JOINT LeftHandMiddle1
									{
										OFFSET 14.26970 0.00000 -0.09147
										CHANNELS 3 Zrotation Xrotation Yrotation
										JOINT LeftHandMiddle2
										{
											OFFSET 6.17440 0.00000 0.00000
											CHANNELS 3 Zrotation Xrotation Yrotation
											JOINT LeftHandMiddle3
											{
												OFFSET 3.56744 0.00000 0.00000
												CHANNELS 3 Zrotation Xrotation Yrotation
												End site
												{
													OFFSET 0.00000 0.00000 0.00000
												}
											}
										}
									}
									JOINT LeftHandRing1
									{
										OFFSET 12.69180 0.00000 -3.06433
										CHANNELS 3 Zrotation Xrotation Yrotation
										JOINT LeftHandRing2
										{
											OFFSET 5.62556 0.00000 0.00000
											CHANNELS 3 Zrotation Xrotation Yrotation
											JOINT LeftHandRing3
											{
												OFFSET 3.56744 0.00000 0.00000
												CHANNELS 3 Zrotation Xrotation Yrotation
												End site
												{
													OFFSET 0.00000 0.00000 0.00000
												}
											}
										}
									}
									JOINT LeftHandPinky1
									{
										OFFSET 11.11390 0.00000 -6.03719
										CHANNELS 3 Zrotation Xrotation Yrotation
										JOINT LeftHandPinky2
										{
											OFFSET 4.52789 0.00000 0.00000
											CHANNELS 3 Zrotation Xrotation Yrotation
											JOINT LeftHandPinky3
											{
												OFFSET 2.46976 0.00000 0.00000
												CHANNELS 3 Zrotation Xrotation Yrotation
												End site
												{
													OFFSET 0.00000 0.00000 0.00000
												}
											}
										}
									}
								}
							}
						}
					}
					JOINT pCube4
					{
						OFFSET 0.00000 10.91090 1.10792
						CHANNELS 3 Zrotation Xrotation Yrotation
						End site
						{
							OFFSET 0.00000 0.00000 0.00000
						}
					}
				}
			}
		}
	}
	JOINT RightUpLeg
	{
		OFFSET -9.98441 0.00000 0.00000
		CHANNELS 3 Zrotation Xrotation Yrotation
		JOINT RightLeg
		{
			OFFSET 0.00000 -42.11790 0.00000
			CHANNELS 3 Zrotation Xrotation Yrotation
			JOINT RightFoot
			{
				OFFSET 0.00000 -45.00020 -0.00001
				CHANNELS 3 Zrotation Xrotation Yrotation
				JOINT RightForeFoot
				{
					OFFSET 0.00000 -3.74820 0.00000
					CHANNELS 3 Zrotation Xrotation Yrotation
					JOINT RightToeBase
					{
						OFFSET 0.00000 0.06325 14.43120
						CHANNELS 3 Zrotation Xrotation Yrotation
						End site
						{
							OFFSET 0.00000 0.00000 0.00000
						}
					}
				}
			}
		}
	}
	JOINT LeftUpLeg
	{
		OFFSET 9.98441 0.00000 0.00000
		CHANNELS 3 Zrotation Xrotation Yrotation
		JOINT LeftLeg
		{
			OFFSET 0.00000 -42.11800 0.00000
			CHANNELS 3 Zrotation Xrotation Yrotation
			JOINT LeftFoot
			{
				OFFSET 0.00000 -45.00070 0.00000
				CHANNELS 3 Zrotation Xrotation Yrotation
				JOINT LeftForeFoot
				{
					OFFSET 0.00000 -3.74824 0.00000
					CHANNELS 3 Zrotation Xrotation Yrotation
					JOINT LeftToeBase
					{
						OFFSET 0.00000 0.06325 14.43110
						CHANNELS 3 Zrotation Xrotation Yrotation
						End site
						{
							OFFSET 0.00000 0.00000 0.00000
						}
					}
				}
			}
		}
	}
}
MOTION
Frames: 4
Frame Time: 0.050000
0.018023272119874176 -0.01595006264089461 -0.03370137377879611 0.02034737196503611 0.012446355032054303 0.005452824982640729 -3.168909500132125 0.4654043699257755 -0.7435611596202139 -1.0938516597819192 3.7702710418277503 0.44220479556281855 -1.3092917659359702 -2.118853931805776 -0.9665028138331084 -0.3943458226111497 0.5399435306776756 -0.7943314735415781 -0.49246724485651217 13.338967892096328 2.3449386024547265 0.4369265416316974 0.1409584305359195 4.34328346127179 -0.12986536031011098 -14.700052806452355 0.304695768969305 -4.91944813955543 1.7294938596067326 -15.338073882225912 73.32835417359334 19.86436131431051 -0.9205177960335093 2.7704696661166794 2.39408077925471 42.12024446986487 23.2195312203979 -0.16890547841285056 -4.180752237002615 4.561328994234179 -0.1115279983365781 -1.5671115715161064 0.013574579063134576 -0.04444652957037554 -56.25891144648662 0.004137413271183561 0.03265934102366496 -56.26809918790406 -38.742172955889124 0.02728707068738934 -0.0016878856765623416 0.030911067304970327 -0.03556189265190944 -0.03825957743744112 0.0009092342442819565 0.004344621442832678 0.004216737363935997 -36.678017982737536 0.03374654383915703 0.02678969231176876 0.04830706991285875 0.02196671403794403 0.007126219077974082 0.0036868284421614386 0.028166987408871556 0.0030218758047409863 -19.791831630054332 0.029237142238117044 0.006614297197467023 -0.004480975791675671 0.025301222865061673 0.029058941519615356 0.044625105753717455 -0.027823765602357258 0.002731704636115426 24.08104319411679 -0.010588232803929004 0.005905178097528466 28.864446241182485 -0.00900074361805004 0.006227190680291776 28.832906164194135 -0.03031799989591348 -0.018391902496865085 6.233333323353835 1.4469933872684364 13.81177847176916 -72.53903740090414 25.38357464369992 -4.068053069248107 -0.7635800274727266 -11.158748362395228 -42.43034180051821 -9.482542325657207 -0.21475034623731262 3.1164302148946956 -0.4516931451860942 0.0902071623618424 -8.16159714205246 0.04362253597308491 0.024029495974704416 44.536517060096635 0.001369020293908279 -0.02625953169368115 44.56088695710983 12.499855377131741 -0.03438764603154005 0.023145018666140837 -0.0029285341849299698 0.016729901672281437 0.003326321827679665 -0.004838410470819328 0.0035405429103297845 0.019544153829119098 11.099458946534611 -0.04031585469809172 0.04181892889786737 -0.018623063585943792 0.025700452809349933 -0.0007652549345415133 0.012833716273834 -5.3463592779028776e-06 0.0006794524040652871 4.758563152792833 -0.026977393270675037 0.034081539725144466 -0.01178832110762371 0.01766990944271352 -0.00134876736400655 0.020869805211928355 0.004831922690842657 -0.0006338078150526734 -5.637078507001573 -0.0395075013812199 -0.011312400352078363 -6.739257856419529 -0.02677558231340033 -0.012458498540525985 -6.745603238231517 0.027925865257906426 -0.0009589825621749913 0.04261953373464724 -0.04226405652825754 0.026326169272435484 8.057855940979316 3.50316315334553 -19.199990897787387 -0.01941962604710589 10.406797026245245 0.03475648801327061 -5.616306686885965 -15.613253678828702 3.19415268939616 0.013559437537724416 0.0031770373494035054 0.02175141768782499 -0.0029879100185575378 4.672323936185662 -0.020465310654330122 12.50481351202757 -8.251033575760841 6.914906662469027 -0.009326543137913552 46.38637845768155 -0.02136211092063443 -4.315364396680561 -14.763878467089837 -3.8167197818545033 -0.027897699412079525 0.038261743844660204 -0.03757229205499037 0.0400827769229339 -10.755372255479271 0.021599882049219324 
-0.026638048995799392 -0.0033288284431336555 -0.008271946501688018 0.0062906784032455134 -0.0003411082170021078 -0.014639252321973462 -3.1599125905789416 0.45529583940867563 -0.7232156853349532 -1.1597045365452299 3.8746730666786915 0.3561508631598273 -1.3286499691243931 -2.136105685794192 -1.1516246189016712 -0.38227325373974536 0.5340908617452256 -0.8529549850608773 -0.5911623674382772 13.457612510095416 2.456038003574183 0.3515890369291798 0.15816581596283025 4.628424092650773 -0.22336250165837168 -14.80599663874938 0.3352350559652991 -5.123289283725519 1.788180101768926 -15.192131923252491 72.65619467410895 20.075999067465016 -0.4205095824009136 2.487443824831327 1.961066136874617 42.81158652328763 22.875858001756477 -0.18780782662224685 -4.187355752703158 4.513000944331432 -0.13471402619522524 -1.5861939374893557 -0.010011522254616479 0.038715404946943775 -56.24779985607626 -0.037562115109278114 0.04906375901688116 -56.206613566245 -38.7629793558284 -0.0025382696491550905 0.04379775792663846 -0.04687697366215488 -0.010624419590840792 0.006541527991685241 0.049502074131919406 0.04911892430292456 0.03485336330006455 -36.72255859225913 -0.016472994259842777 0.03985904106830452 -0.009062489612421839 -0.039637908275429866 -0.00152401618449878 0.016946521804773646 0.015187364107783943 0.020023279361412356 -19.806256720242867 0.01917725176552381 0.032243019823204454 0.04103629052832033 0.006607457214649602 -0.02294858702337159 0.04193970359419926 -0.034411082812988825 -0.0007662149865525896 24.061980023255753 0.02396777945326756 -0.03460380677869769 28.82508353172058 -0.04368880799734714 -0.005633024759467263 28.84643178352308 -0.03762256734791295 0.029462395599762683 6.690403502541308 1.4439840456481787 13.743440578850944 -72.14584479956335 24.18716323876904 -5.6893733433146965 -0.46789690080822416 -11.688659921973622 -43.305837865795645 -8.46013818711581 0.09288722813099116 2.8154409418980744 -0.4787851223122849 0.05390473248740443 -8.122923249047103 0.02706520079634093 0.008325696833226277 44.550202312987004 0.024035737183253154 0.03170423940491614 44.561031381824925 12.48246472160157 -0.004932456449153119 -0.025595462936151177 -0.03391344498268151 0.016018605092199965 0.04468608286896526 -0.035772993142160626 0.03126775187300379 0.027073049641133058 11.154847907966241 0.03802596333884364 0.01824433447896878 0.03437550606285263 -0.007590031007979238 -0.03579262726555886 0.002700029577263889 0.012998293521012259 0.011426843636905408 4.772677473888459 0.03015470575952645 0.042379254129431464 0.010659526037140103 -0.04998163500830106 -0.02703839772986373 -0.04874349893879235 0.0006415900615983392 -0.03354581904023155 -5.575951571660134 -0.021355070001761352 0.049460995250356764 -6.681603472103031 0.024657516912419634 0.035660696679029845 -6.7089709998055 0.025851754717869182 -0.009883270377220423 -0.013141162378474992 -0.03425581280800186 0.005494416052319055 8.02888940698677 3.4807917884728687 -19.24819738769849 0.04437103749534624 10.407996623189012 0.008921694919167776 -5.630665476604205 -15.676054466762372 3.223220718795218 0.0401456459465982 0.025496967706510894 -0.03469790465497749 -0.027000962394916193 4.6948891975249545 -0.01720538724234732 12.464338367063121 -8.260018676299698 6.913778152090783 -0.009718291429502531 46.33023813866815 0.04548220100885674 -4.330572440470443 -14.786707838454703 -3.863330684888349 -0.018718990037416075 -0.038212385568158404 -0.04648120819372438 -0.03947289096078176 -10.722701618039855 0.02492376751375064 
-0.01602590642665586 0.020157273146445106 -0.02968512855631321 -0.006480833823811612 -0.022911307653706442 -0.04092152078493702 -3.188593020089016 0.53794968126347 -0.7525730975857464 -1.1833586129230498 3.8620593423050025 0.42561854806243754 -1.247361881072988 -2.150082159537329 -1.2362668049108965 -0.44101943857885256 0.5352630128453437 -0.8702838378523179 -0.7573106734135906 13.711942615041396 2.99368030381387 0.3693877055094309 0.14428741268273276 5.819751788237487 -0.39439487981392146 -14.822571105270757 0.48647520034934494 -5.323637064559799 1.8908223044986194 -15.075923497441911 71.71973902263278 20.02630620524103 -0.4087066548234496 2.240648572404543 1.2957266546238784 43.278320569169 22.635075351527295 -0.1971445634773486 -4.308417254231514 4.509542936961929 -0.10822033860589467 -1.5611939546857734 0.03360816363394679 -0.03125218130808724 -56.2465200669248 -0.008895372748420411 -0.021569570694130905 -56.18926338323675 -38.75391574629716 -0.04936473619995214 -0.001766993710824391 0.00623711074011659 0.005200403894213298 0.004741471762965039 -0.03929738682374169 -0.04448911755547153 -0.04734062986861515 -36.67968884666908 -0.04813340408534183 0.004748764342215865 -0.0358831756050457 -0.0036182386622016665 -0.03899119773786994 0.011565342074368537 -0.03192456917775346 0.02882842370831984 -19.801854043933773 0.03248570578397136 -0.003515479973849112 0.022246126545391244 -0.0018577825320068493 0.007634366307169887 -0.02331354420677568 0.04311026138711766 0.007929757204947523 24.077047007998463 0.013239078658026308 0.03728329240471966 28.883678294853524 0.022220472589370356 0.03899736365936001 28.879616013794465 0.03887019146041716 -0.0319467900995624 7.3437793011396995 1.572188447062197 13.707009591413797 -71.58825999019147 22.9342584975601 -7.639341997900113 0.326495401258246 -12.553830144222498 -44.33482905451523 -7.316256883345389 0.4578986939520641 2.658792114432968 -0.4550347341826766 0.0925242975152999 -8.107082193716005 0.004624749851313187 -0.010234441075318028 44.56228278436316 -0.009189969884434932 0.029135279904719237 44.53697021688357 12.457688774078262 0.04941333261699703 0.007475139549427538 -0.014638279547798413 -0.01727140431404261 -0.04211114387207758 -0.04912235231796876 -0.04877252624244232 -0.01742795592130456 11.077504505680944 -0.03202003958656103 -0.028080552856994012 -0.004118172015306422 0.033862096931708725 -0.015180608222279263 -0.010577561819441845 -0.035809227568824126 0.004263006499793839 4.752185752295979 0.04756334679948077 0.04936191669209054 0.041310829284286345 0.005243663627564886 0.03123490876837898 -0.0022292771416527637 0.04545389507848283 0.03727768780029073 -5.613380985067226 0.010585993967506913 0.024586550579818303 -6.714945964445125 -0.023968325519296656 0.017743745657467874 -6.682371016624191 0.02869241214992531 0.03326146214012352 -0.004461316097838153 0.00540264570258603 0.014783558109130967 8.076580816263785 3.477674813714243 -19.216080792659888 -0.009292211365681955 10.410302155317988 0.019214992538954628 -5.60300924306162 -15.659721297808103 3.156337482925201 -0.012419668587610863 -0.0009734652283211697 0.007823487732338782 0.003964729763251209 4.714413956990536 -0.046330689025410314 12.499028603423353 -8.245918845599563 6.920732740317149 -0.03156898992907764 46.36595014106742 0.03866176663433337 -4.366228073568168 -14.765409650270595 -3.883859001176145 -0.008754820106371531 -0.03848063661081501 0.04671736654962628 0.020070813223579745 -10.786174046323936 0.043530642239465 
0.0037196700953475667 -0.02916284964928716 -0.048784917284679256 0.015786834920338652 0.025213344196899763 0.013810141245409458 -3.1161285921854165 0.6135888788337702 -0.6737278890862544 -1.1862635628813203 3.8508233089821915 0.36217047556064413 -1.3164283747131407 -2.1623655838785156 -1.4154179965153595 -0.5074830684282603 0.6245241905814886 -0.848746909699543 -0.9770588123893953 13.94972322197867 3.427572256168413 0.35671369422002946 0.3278679980978775 7.030702172990257 -0.6476766285835059 -14.625388463606575 0.57132342355785 -5.553839677658529 1.9300709369507703 -15.005535798782374 70.66769209608314 20.121332532538556 -0.0040246624006056555 2.307592805102889 0.8117768037768748 44.449903665179164 22.46194641435524 -0.15781729790760468 -4.3825723890954995 4.485602900883172 -0.14888776287405087 -1.5764114800987628 0.0035842028722280505 -0.000820136393073125 -56.20642290398129 -0.02981515858041454 0.024682443738770796 -56.26913113609031 -38.80168297693634 -0.029600751781973685 -0.003045145540943558 -0.027740146643736478 -0.030608009701507722 0.015532310142999993 -0.021403264372400675 -0.021509391077894312 0.024619223952229805 -36.713709890358764 0.006609361433821376 0.0395381277634978 0.010321628892540968 0.014849758309889381 -0.018512748219095262 -0.029882088764186597 0.030324504705311207 -0.03544925204363406 -19.726679369058072 -0.03327407997520299 0.006348292038354738 0.01415438479744381 -0.04614466947586389 0.015833382085539603 0.005814858619610132 0.0038527211954159863 -0.012806537013070895 24.017537751960468 0.045031671052429105 -0.024714017820904093 28.84872966358439 -0.034810259642655356 0.015735498872225237 28.89788065258286 -0.008994426561674023 -0.0190094324545102 8.162911352164087 1.7251194023241698 13.702644141215382 -70.83760378524074 20.932186901555216 -10.190167844608682 0.6200148768888287 -13.19329691087818 -46.19658719084882 -6.159727517929646 0.855484763828827 2.347521578453285 -0.4501087020641279 0.08384191839606997 -8.165817492532407 -0.000413901661340955 -0.0062594042189512665 44.53936907480843 0.009357757620043084 0.02318640268366459 44.550938891804996 12.421285766030378 0.014500070351575987 0.04896308784624146 0.03877100027560356 0.002897327698799241 -0.04348787816893235 -0.011408956656606982 -0.019891603306310453 -0.029336054988139813 11.068766276226853 0.028691388332308318 0.0018529918181804685 -0.032417077912928575 0.009455026076161938 -0.04553404004601918 -0.0013130579510861773 0.04133671215066099 -0.04432845485755953 4.80294543356325 0.010586910617234711 -0.030646542584160965 0.007271808312204788 0.0036257923578559433 -0.015917819455335155 0.045229692317299626 -0.0005369054685566051 0.029935761549723626 -5.636736497910542 0.0005515176696665685 -0.02277322118434985 -6.744230888425563 0.008907715049616837 0.006043135465071572 -6.753299437508505 -0.03728291576397834 0.017878336861032712 -0.039907414992115794 -0.016798225853762134 -0.018473900727984247 8.05078051316197 3.4866369862192004 -19.192579545746657 0.03651674322844936 10.430745820920345 0.04607157026715984 -5.630983328191476 -15.636116320548762 3.237273167470186 0.022123815176476647 -0.019891372333413166 -0.014517734885915562 -0.008650602873837135 4.673353532003282 0.02966022582499735 12.49215889906407 -8.215162238779943 6.876931733007539 -0.03134308704743071 46.33118788250896 0.04423943409075725 -4.320635591258919 -14.745608518864959 -3.8697126440588256 -0.04591772022289302 0.0010689963659283163 -0.005444843261344766 -0.024816472087873534 -10.742608052600637 0.020294482357099637 
